<?xml version="1.0" encoding="UTF-8" standalone="no" ?>
<!DOCTYPE svg PUBLIC "-//W3C//DTD SVG 1.1//EN" "http://www.w3.org/Graphics/SVG/1.1/DTD/svg11.dtd">
<svg xmlns="http://www.w3.org/2000/svg" xmlns:xlink="http://www.w3.org/1999/xlink" version="1.1" width="1280" height="1024" viewBox="0 0 1280 1024" xml:space="preserve">
<desc>Created with Fabric.js 5.3.0</desc>
<defs>
</defs>
<g transform="matrix(1 0 0 1 640 512)" id="background-logo"  >
<rect style="stroke: none; stroke-width: 0; stroke-dasharray: none; stroke-linecap: butt; stroke-dashoffset: 0; stroke-linejoin: miter; stroke-miterlimit: 4; fill: rgb(255,255,255); fill-rule: nonzero; opacity: 1;"  paint-order="stroke"  x="-640" y="-512" rx="0" ry="0" width="1280" height="1024" />
</g>
<g transform="matrix(1.9211538461538462 0 0 1.9211538461538462 640 376.3170801190016)" id="logo-logo"  >
<g style=""  paint-order="stroke"   >
		<g transform="matrix(0.8796918778394542 0 0 0.8796918778394541 8.371679436847785 71.67300778861627)"  >
<path style="stroke: none; stroke-width: 1; stroke-dasharray: none; stroke-linecap: butt; stroke-dashoffset: 0; stroke-linejoin: miter; stroke-miterlimit: 4; fill: rgb(41,104,0); fill-rule: nonzero; opacity: 1;"  paint-order="stroke"  transform=" translate(-172.3, -211.06900692159783)" d="M 266.1 192 C 265.1 193.2 263.90000000000003 194.4 262.70000000000005 195.7 C 247.40000000000003 194.89999999999998 202.50000000000006 196.39999999999998 147.40000000000003 231 C 149.10000000000002 230.2 204.70000000000005 205 254.10000000000002 204.1 C 234.50000000000003 221.29999999999998 203.40000000000003 240.3 164.50000000000003 242.39999999999998 C 137.70000000000002 243.79999999999998 115.00000000000003 237.2 96.80000000000003 228.29999999999998 C 111.80000000000003 215.89999999999998 144.90000000000003 198.39999999999998 144.90000000000003 198.39999999999998 C 121.60000000000004 202.79999999999998 100.70000000000003 214.99999999999997 88.20000000000003 223.59999999999997 C 84.80000000000003 221.59999999999997 81.50000000000003 219.59999999999997 78.50000000000003 217.59999999999997 C 137.70000000000005 179.99999999999997 202.60000000000002 177.39999999999998 242.00000000000003 180.49999999999997 C 242.00000000000003 180.49999999999997 188.40000000000003 181.49999999999997 149.3 207.79999999999998 C 151 207.1 211.2 187.7 266.1 192 z" stroke-linecap="round" />
</g>
		<g transform="matrix(0.8796918778394542 0 0 0.8796918778394541 0 24.85667965300496)"  >
<path style="stroke: none; stroke-width: 1; stroke-dasharray: none; stroke-linecap: butt; stroke-dashoffset: 0; stroke-linejoin: miter; stroke-miterlimit: 4; fill: rgb(138,192,34); fill-rule: nonzero; opacity: 1;"  paint-order="stroke"  transform=" translate(-162.78339578011241, -157.85)" d="M 276.4 174.5 C 263.09999999999997 170.4 250.29999999999998 167.2 238.09999999999997 164.7 C 238.69999999999996 163.29999999999998 239.69999999999996 160.7 240.59999999999997 156.6 C 240.59999999999997 156.6 240.59999999999997 156.6 240.59999999999997 156.6 C 242.19999999999996 153.6 245.29999999999995 150.9 245.29999999999995 150.9 C 258.59999999999997 155.3 259.09999999999997 139.5 259.09999999999997 139.5 C 259.09999999999997 139.5 257.7 143.2 250.39999999999998 141 C 243.09999999999997 138.8 243.59999999999997 149.3 243.59999999999997 149.3 C 245.89999999999998 146.60000000000002 251.69999999999996 146.4 251.69999999999996 146.4 C 243.79999999999995 148 241.49999999999997 152.9 240.79999999999995 155.3 C 241.59999999999997 151.10000000000002 242.09999999999997 145.60000000000002 241.79999999999995 138.70000000000002 C 242.69999999999996 137.3 243.99999999999994 136.20000000000002 243.99999999999994 136.20000000000002 C 251.49999999999994 138.70000000000002 251.79999999999995 129.70000000000002 251.79999999999995 129.70000000000002 C 251.79999999999995 129.70000000000002 250.99999999999994 131.8 246.89999999999995 130.50000000000003 C 242.79999999999995 129.20000000000002 242.99999999999994 135.20000000000002 242.99999999999994 135.20000000000002 C 244.29999999999995 133.70000000000002 247.59999999999994 133.50000000000003 247.59999999999994 133.50000000000003 C 243.89999999999995 134.20000000000002 242.39999999999995 136.20000000000002 241.79999999999993 137.70000000000002 C 241.79999999999993 136.9 241.69999999999993 136.10000000000002 241.69999999999993 135.3 C 241.49999999999994 132 241.49999999999994 129.4 241.69999999999993 127.30000000000001 C 242.39999999999992 122.00000000000001 244.09999999999994 121.50000000000001 245.49999999999994 120.60000000000001 C 244.59999999999994 121.80000000000001 244.39999999999995 123.2 244.39999999999995 123.30000000000001 L 244.29999999999995 123.80000000000001 L 244.79999999999995 123.80000000000001 C 246.39999999999995 123.80000000000001 247.69999999999996 123.30000000000001 248.69999999999996 122.20000000000002 C 250.79999999999995 119.80000000000001 250.39999999999995 115.70000000000002 250.39999999999995 115.50000000000001 L 250.29999999999995 114.10000000000001 L 249.59999999999997 115.4 C 249.29999999999995 116.10000000000001 248.49999999999997 116.4 247.49999999999997 116.7 C 245.09999999999997 117.60000000000001 241.79999999999998 118.8 240.89999999999998 126.60000000000001 C 240.59999999999997 125.50000000000001 239.79999999999998 123.9 237.7 122.60000000000001 C 237.7 122.60000000000001 239.89999999999998 123.50000000000001 240.29999999999998 124.9 C 240.29999999999998 124.9 241.99999999999997 120.9 238.89999999999998 120.7 C 235.79999999999998 120.5 235.79999999999998 118.9 235.79999999999998 118.9 C 235.79999999999998 118.9 233.7 125 239.39999999999998 125.30000000000001 C 239.39999999999998 125.30000000000001 240.29999999999998 126.20000000000002 240.7 127.30000000000001 C 240.5 129.5 240.5 132.10000000000002 240.7 135.4 C 240.89999999999998 138.70000000000002 241 141.8 240.89999999999998 144.5 C 240.2 142.1 237.99999999999997 137.5 231.29999999999998 134.7 C 231.29999999999998 134.7 236.7 136 238.29999999999998 139 C 238.29999999999998 139 240.79999999999998 129.2 233.49999999999997 129.9 C 226.29999999999998 130.6 225.69999999999996 126.9 225.69999999999996 126.9 C 225.69999999999996 126.9 223.19999999999996 141.8 236.39999999999995 140.20000000000002 C 236.39999999999995 140.20000000000002 239.49999999999994 142.50000000000003 240.79999999999995 145.3 C 240.69999999999996 148.20000000000002 240.39999999999995 150.8 240.09999999999997 153 C 239.59999999999997 151.6 238.19999999999996 149.3 234.19999999999996 148.5 C 234.19999999999996 148.5 237.39999999999995 148.6 238.69999999999996 150.1 C 238.69999999999996 150.1 238.89999999999995 144.2 234.89999999999995 145.5 C 230.89999999999995 146.7 230.09999999999994 144.7 230.09999999999994 144.7 C 230.09999999999994 144.7 230.39999999999995 153.39999999999998 237.69999999999993 151 C 237.69999999999993 151 238.99999999999994 152.1 239.89999999999992 153.5 C 238.99999999999991 159.3 237.5999999999999 162.8 236.89999999999992 164.4 C 163.99999999999991 149.70000000000002 111.89999999999992 161.20000000000002 81.19999999999993 173.20000000000002 C 80.39999999999993 171.50000000000003 78.29999999999993 166.60000000000002 76.99999999999993 158.20000000000002 C 78.29999999999993 156.3 79.99999999999993 154.8 79.99999999999993 154.8 C 89.89999999999993 158.10000000000002 90.29999999999993 146.3 90.29999999999993 146.3 C 90.29999999999993 146.3 89.29999999999993 149.10000000000002 83.89999999999992 147.4 C 78.49999999999991 145.70000000000002 78.79999999999993 153.6 78.79999999999993 153.6 C 80.49999999999993 151.6 84.79999999999993 151.4 84.79999999999993 151.4 C 79.49999999999993 152.4 77.59999999999992 155.5 76.89999999999992 157.4 C 76.49999999999991 154.4 76.09999999999992 150.9 75.99999999999991 147 C 77.79999999999991 143.3 81.89999999999992 140.2 81.89999999999992 140.2 C 99.79999999999993 142.29999999999998 96.29999999999993 122.29999999999998 96.29999999999993 122.29999999999998 C 96.29999999999993 122.29999999999998 95.49999999999993 127.29999999999998 85.79999999999993 126.39999999999998 C 76.09999999999992 125.49999999999997 79.39999999999992 138.7 79.39999999999992 138.7 C 81.59999999999992 134.7 88.79999999999993 132.89999999999998 88.79999999999993 132.89999999999998 C 79.89999999999992 136.7 76.89999999999992 142.7 75.99999999999993 145.99999999999997 C 75.89999999999993 142.29999999999998 75.89999999999993 138.19999999999996 76.19999999999993 133.79999999999998 C 76.49999999999993 129.39999999999998 76.49999999999993 125.79999999999998 76.19999999999993 122.89999999999998 C 76.79999999999993 121.49999999999997 77.99999999999993 120.19999999999997 77.99999999999993 120.19999999999997 C 85.69999999999993 119.79999999999997 82.79999999999993 111.69999999999997 82.79999999999993 111.69999999999997 C 82.79999999999993 111.69999999999997 82.79999999999993 113.89999999999998 78.69999999999993 114.19999999999997 C 74.49999999999993 114.49999999999997 76.79999999999993 119.79999999999997 76.79999999999993 119.79999999999997 C 77.39999999999992 117.99999999999997 80.39999999999992 116.69999999999997 80.39999999999992 116.69999999999997 C 77.59999999999992 118.49999999999997 76.49999999999991 120.59999999999998 76.09999999999992 122.09999999999998 C 74.89999999999992 111.59999999999998 70.39999999999992 109.89999999999998 67.19999999999992 108.79999999999998 C 65.89999999999992 108.29999999999998 64.79999999999991 107.89999999999998 64.39999999999992 106.99999999999999 L 63.49999999999992 105.29999999999998 L 63.29999999999992 107.19999999999999 C 63.29999999999992 107.39999999999999 62.69999999999992 112.99999999999999 65.59999999999992 116.19999999999999 C 66.89999999999992 117.6 68.59999999999992 118.29999999999998 70.79999999999993 118.29999999999998 L 71.49999999999993 118.29999999999998 L 71.39999999999993 117.59999999999998 C 71.39999999999993 117.49999999999999 70.99999999999993 115.69999999999997 69.89999999999993 113.99999999999999 C 71.79999999999994 115.19999999999999 74.09999999999994 115.79999999999998 75.09999999999994 122.89999999999999 C 75.39999999999993 125.8 75.39999999999993 129.29999999999998 75.09999999999994 133.7 C 74.99999999999994 134.79999999999998 74.99999999999994 135.89999999999998 74.89999999999993 137 C 73.99999999999993 135.1 71.99999999999993 132.4 67.09999999999994 131.4 C 67.09999999999994 131.4 71.49999999999994 131.6 73.29999999999994 133.6 C 73.29999999999994 133.6 73.59999999999994 125.5 68.09999999999994 127.19999999999999 C 62.59999999999994 128.89999999999998 61.499999999999936 126.1 61.499999999999936 126.1 C 61.499999999999936 126.1 61.899999999999935 138.1 71.99999999999994 134.79999999999998 C 71.99999999999994 134.79999999999998 73.69999999999995 136.29999999999998 74.89999999999995 138.1 C 74.59999999999995 147.4 75.29999999999995 154.79999999999998 76.29999999999995 160.4 C 75.39999999999995 157.20000000000002 72.39999999999995 150.5 61.69999999999995 148.4 C 61.69999999999995 148.4 69.49999999999996 148.70000000000002 72.59999999999995 152.3 C 72.59999999999995 152.3 73.19999999999995 138.10000000000002 63.39999999999995 141.10000000000002 C 53.59999999999995 144.10000000000002 51.79999999999995 139.10000000000002 51.79999999999995 139.10000000000002 C 51.79999999999995 139.10000000000002 52.49999999999995 160.3 70.39999999999995 154.40000000000003 C 70.39999999999995 154.40000000000003 74.49999999999994 158.00000000000003 76.69999999999995 162.10000000000002 C 76.69999999999995 162.10000000000002 76.69999999999995 162.10000000000002 76.69999999999995 162.10000000000002 C 77.99999999999994 168.3 79.59999999999995 172.00000000000003 80.29999999999994 173.60000000000002 C 59.19999999999994 182.00000000000003 48.59999999999994 190.60000000000002 48.59999999999994 190.60000000000002 C 49.29999999999994 191.40000000000003 50.59999999999994 193.00000000000003 52.59999999999994 195.20000000000002 C 74.39999999999993 184.60000000000002 133.89999999999992 159 197.89999999999995 161.60000000000002 C 197.89999999999995 161.60000000000002 109.69999999999995 168.40000000000003 62.59999999999994 204.8 C 64.59999999999994 206.60000000000002 66.79999999999994 208.5 69.29999999999994 210.4 C 99.8 193.5 176 159.3 276 178.5 C 277.1 176.4 277.3 175.1 276.4 174.5 z" stroke-linecap="round" />
</g>
		<g transform="matrix(0.8796918778394542 0 0 0.8796918778394541 -3.1082995689570794 -24.362080912112475)"  >
<path style="stroke: none; stroke-width: 1; stroke-dasharray: none; stroke-linecap: butt; stroke-dashoffset: 0; stroke-linejoin: miter; stroke-miterlimit: 4; fill: rgb(41,104,0); fill-rule: nonzero; opacity: 1;"  paint-order="stroke"  transform=" translate(-159.25, -101.9)" d="M 159.3 47.7 L 88.00000000000001 106.1 L 101.70000000000002 106.1 L 101.70000000000002 156.1 C 129.4 148.29999999999998 167.8 143.29999999999998 216.8 150.4 L 216.8 106.10000000000001 L 230.5 106.10000000000001 L 159.3 47.7 z M 156.5 123.9 L 142 123.9 L 142 109.4 L 156.5 109.4 L 156.5 123.9 z M 156.5 103.9 L 142 103.9 L 142 89.4 L 156.5 89.4 L 156.5 103.9 z M 176.5 123.9 L 162 123.9 L 162 109.4 L 176.5 109.4 L 176.5 123.9 z M 176.5 103.9 L 162 103.9 L 162 89.4 L 176.5 89.4 L 176.5 103.9 z" stroke-linecap="round" />
</g>
		<g transform="matrix(0.8796918778394542 0 0 0.8796918778394541 -3.1082995689570794 -73.31693391387813)"  >
<path style="stroke: none; stroke-width: 1; stroke-dasharray: none; stroke-linecap: butt; stroke-dashoffset: 0; stroke-linejoin: miter; stroke-miterlimit: 4; fill: rgb(254,145,0); fill-rule: nonzero; opacity: 1;"  paint-order="stroke"  transform=" translate(-159.25, -46.25)" d="M 194.2 60.1 L 202.79999999999998 60.1 C 202.79999999999998 56.1 202.2 52.2 201.2 48.6 L 186.5 46.2 L 200.5 46.2 C 199.4 43 198 40 196.3 37.2 L 169.3 33.7 L 193.9 33.7 C 185.9 23.300000000000004 173.4 16.6 159.2 16.6 C 144.6 16.6 131.6 23.8 123.69999999999999 34.900000000000006 L 151 34.900000000000006 L 119.8 41.60000000000001 C 117.6 46.20000000000001 116.2 51.20000000000001 115.8 56.400000000000006 L 134.7 56.400000000000006 L 115.69999999999999 59.7 C 115.69999999999999 59.900000000000006 115.69999999999999 60.1 115.69999999999999 60.300000000000004 C 115.69999999999999 65.80000000000001 116.69999999999999 71 118.6 75.9 L 159.39999999999998 42.50000000000001 L 200 75.8 C 201.6 71.5 202.6 66.89999999999999 202.8 62.099999999999994 L 194.2 60.1 z" stroke-linecap="round" />
</g>
</g>
</g>
<g transform="matrix(1.9211538461538462 0 0 1.9211538461538462 639.2144212948973 620.3548641335785)" id="text-logo"  >
<g style=""  paint-order="stroke"   >
		<g transform="matrix(1 0 0 1 -5.684342e-14 0)" id="text-logo-path-0"  >
<filter id="SVGID_510869" y="-28.96177535952663%" height="157.92355071905325%" x="-20%" width="140%" >
	<feGaussianBlur in="SourceAlpha" stdDeviation="0"></feGaussianBlur>
	<feOffset dx="0" dy="1.624769872682178" result="oBlur" ></feOffset>
	<feFlood flood-color="rgb(255,255,255)" flood-opacity="1"/>
	<feComposite in2="oBlur" operator="in" />
	<feMerge>
		<feMergeNode></feMergeNode>
		<feMergeNode in="SourceGraphic"></feMergeNode>
	</feMerge>
</filter>
<path style="stroke: rgb(255,255,255); stroke-width: 1.624769872682178; stroke-dasharray: none; stroke-linecap: butt; stroke-dashoffset: 0; stroke-linejoin: miter; stroke-miterlimit: 4; fill: rgb(41,104,0); fill-rule: nonzero; opacity: 1;filter: url(#SVGID_510869);"  paint-order="stroke"  transform=" translate(-207.305, 8.815)" d="M 1.39 -14.35 L 1.39 0 L 5.67 0 L 5.67 -7.18 L 10.7 -7.18 L 10.7 0 L 14.98 0 L 14.98 -17.63 L 10.7 -17.63 L 10.7 -10.45 L 5.67 -10.45 L 5.67 -17.63 L 1.39 -17.63 L 0.38 -14.35 Z M 22.79 -14.35 L 22.79 0 L 33.85 0 L 33.85 -3.27 L 27.07 -3.27 L 27.07 -7.18 L 31.33 -7.18 L 31.33 -10.45 L 27.07 -10.45 L 27.07 -14.35 L 32.84 -14.35 L 33.85 -17.63 L 22.79 -17.63 L 21.78 -14.35 Z M 41.65 -14.35 L 41.65 0 L 45.94 0 L 45.94 -5.04 L 46.54 -5.04 L 46.94 -5.04 L 50.34 0 L 54.88 0 L 51.07 -5.62 C 53.29 -6.37 54.65 -8.03 54.65 -11.36 C 54.65 -16.24 51.53 -17.63 46.54 -17.63 L 41.65 -17.63 L 40.65 -14.35 Z M 45.94 -8.31 L 45.94 -14.35 L 46.54 -14.35 C 48.86 -14.35 50.12 -14.15 50.12 -11.36 C 50.12 -8.34 48.83 -8.31 46.54 -8.31 Z M 62.68 -14.35 L 62.68 0 L 66.96 0 L 66.96 -9.52 L 72 0 L 76.28 0 L 76.28 -17.63 L 72 -17.63 L 72 -8.11 L 66.96 -17.63 L 62.68 -17.63 L 61.68 -14.35 Z M 93.41 -17.63 L 87.87 -17.63 L 86.86 -14.35 L 87.79 -14.35 L 83.08 0 L 87.36 0 L 88.32 -3.02 L 93.96 -3.02 L 94.92 0 L 99.2 0 Z M 89.35 -6.3 L 91.14 -12.01 L 92.93 -6.3 Z M 106.25 -14.35 L 106.25 0 L 110.53 0 L 110.53 -9.52 L 115.57 0 L 119.85 0 L 119.85 -17.63 L 115.57 -17.63 L 115.57 -8.11 L 110.53 -17.63 L 106.25 -17.63 L 105.24 -14.35 Z M 127.66 -14.35 L 127.66 0 L 131.28 0 L 131.28 0.03 L 133.05 0 C 138.06 0 141.41 -3.17 141.41 -8.84 C 141.41 -14.28 138.28 -17.63 133.05 -17.63 L 127.66 -17.63 L 126.65 -14.35 Z M 131.94 -3.27 L 131.94 -14.35 L 133.05 -14.35 C 135.62 -14.35 136.87 -12.39 136.87 -8.84 C 136.87 -5.06 135.59 -3.27 133.05 -3.27 Z M 149.21 -14.35 L 149.21 0 L 160.27 0 L 160.27 -3.27 L 153.5 -3.27 L 153.5 -7.18 L 157.75 -7.18 L 157.75 -10.45 L 153.5 -10.45 L 153.5 -14.35 L 159.26 -14.35 L 160.27 -17.63 L 149.21 -17.63 L 148.21 -14.35 Z M 174.73 -14.35 L 167.07 -3.27 L 167.07 0 L 179.01 0 L 179.01 -3.27 L 171.86 -3.27 L 179.01 -14.35 L 179.01 -17.63 L 168.08 -17.63 L 167.07 -14.35 Z M 196.89 -14.35 L 196.89 0 L 207.94 0 L 207.94 -3.27 L 201.17 -3.27 L 201.17 -17.63 L 196.89 -17.63 L 195.88 -14.35 Z M 225.07 -17.63 L 219.53 -17.63 L 218.52 -14.35 L 219.45 -14.35 L 214.74 0 L 219.02 0 L 219.98 -3.02 L 225.62 -3.02 L 226.58 0 L 230.86 0 Z M 221.01 -6.3 L 222.8 -12.01 L 224.59 -6.3 Z M 237.91 -14.35 L 237.91 0 L 242.19 0 L 242.19 -9.52 L 247.23 0 L 251.51 0 L 251.51 -17.63 L 247.23 -17.63 L 247.23 -8.11 L 242.19 -17.63 L 237.91 -17.63 L 236.91 -14.35 Z M 259.32 -14.35 L 259.32 0 L 262.95 0 L 262.95 0.03 L 264.71 0 C 269.72 0 273.07 -3.17 273.07 -8.84 C 273.07 -14.28 269.95 -17.63 264.71 -17.63 L 259.32 -17.63 L 258.31 -14.35 Z M 263.6 -3.27 L 263.6 -14.35 L 264.71 -14.35 C 267.28 -14.35 268.54 -12.39 268.54 -8.84 C 268.54 -5.06 267.25 -3.27 264.71 -3.27 Z M 286.95 -3.32 C 285.46 -3.32 284.38 -4.23 283.9 -6.17 L 279.87 -4.53 C 281.13 -1.49 283.75 0.25 286.95 0.25 C 290.27 0.25 293.95 -2.01 293.95 -5.36 C 293.95 -7.43 292.44 -9.6 288.03 -11.03 C 285.89 -11.71 285.46 -12.11 285.46 -12.94 C 285.46 -13.7 286.14 -14.3 287.22 -14.3 C 288.2 -14.3 289.04 -13.85 289.62 -12.94 L 293.54 -14.56 C 292.18 -16.65 289.99 -17.88 287.22 -17.88 C 287.22 -17.88 287.22 -17.88 287.22 -17.88 L 287.2 -17.88 C 284.13 -17.88 280.93 -15.87 280.93 -12.94 C 280.93 -10.22 283.09 -8.76 286.62 -7.61 C 289.06 -6.85 289.41 -6.07 289.41 -5.36 C 289.41 -3.95 288.43 -3.32 286.95 -3.32 Z M 315.73 -4.53 L 311.7 -6.17 C 311.22 -4.23 310.14 -3.32 308.65 -3.32 C 306.56 -3.32 305.28 -5.29 305.28 -8.84 C 305.28 -12.57 306.61 -14.3 308.65 -14.3 C 309.66 -14.3 310.49 -13.85 311.07 -12.94 L 315 -14.56 C 313.64 -16.65 311.42 -17.88 308.65 -17.88 C 304.07 -17.88 300.75 -14.53 300.75 -8.84 C 300.75 -3.35 303.87 0.25 308.65 0.25 C 311.85 0.25 314.47 -1.49 315.73 -4.53 Z M 332.86 -17.63 L 327.32 -17.63 L 326.31 -14.35 L 327.24 -14.35 L 322.53 0 L 326.81 0 L 327.77 -3.02 L 333.41 -3.02 L 334.37 0 L 338.65 0 Z M 328.8 -6.3 L 330.59 -12.01 L 332.38 -6.3 Z M 345.7 -14.35 L 345.7 0 L 349.98 0 L 349.98 -5.01 L 350.84 -5.04 C 355.6 -5.04 358.95 -6.12 358.95 -11.36 C 358.95 -16.24 355.82 -17.63 350.84 -17.63 L 345.7 -17.63 L 344.69 -14.35 Z M 349.98 -8.31 L 349.98 -14.35 L 350.84 -14.35 C 353.15 -14.35 354.41 -14.15 354.41 -11.36 C 354.41 -8.34 353.13 -8.31 350.84 -8.31 Z M 366.75 -14.35 L 366.75 0 L 371.03 0 L 371.03 -17.63 L 366.75 -17.63 L 365.75 -14.35 Z M 378.84 -14.35 L 378.84 0 L 383.12 0 L 383.12 -9.52 L 388.16 0 L 392.44 0 L 392.44 -17.63 L 388.16 -17.63 L 388.16 -8.11 L 383.12 -17.63 L 378.84 -17.63 L 377.83 -14.35 Z M 414.23 0 L 414.23 -10.1 L 407.6 -10.1 L 406.59 -6.82 L 409.94 -6.82 L 409.94 -6.17 C 409.94 -4.1 408.63 -3.32 407.15 -3.32 C 405.06 -3.32 403.77 -5.29 403.77 -8.84 C 403.77 -12.57 405.11 -14.3 407.15 -14.3 C 408.16 -14.3 408.99 -13.85 409.57 -12.94 L 413.49 -14.56 C 412.14 -16.65 409.92 -17.88 407.15 -17.88 C 402.57 -17.88 399.24 -14.53 399.24 -8.84 C 399.24 -3.35 402.36 0.25 407.15 0.25 C 408.76 0.25 410.22 -0.18 411.43 -1.01 L 411.73 0 Z" stroke-linecap="round" />
</g>
</g>
</g>
<g transform="matrix(1 0 0 1 325.11995275706795 418.73414362712987)" id="tagline-d3c4dcda-eedc-4a56-a116-44bd8a3027ae-logo"  >
<g style=""  paint-order="stroke"   >
		<g transform="matrix(1 0 0 1 0 0)" id="tagline-d3c4dcda-eedc-4a56-a116-44bd8a3027ae-logo-path-0"  >
<path style="stroke: none; stroke-width: 0; stroke-dasharray: none; stroke-linecap: butt; stroke-dashoffset: 0; stroke-linejoin: miter; stroke-miterlimit: 4; fill: rgb(41,104,0); fill-rule: nonzero; opacity: 1;"  paint-order="stroke"  transform=" translate(0, 0)" d="" stroke-linecap="round" />
</g>
</g>
</g>
</svg>